<?xml version="1.0" encoding="utf-8"?>
<svg viewBox="0 159.894 550.654 167.184" xmlns="http://www.w3.org/2000/svg">
	<path fill="#000000" opacity="1.000000" stroke="none" d="M 474.878 171.943 C 475.568 172.038 476.188 172.176 476.815 172.221 C 480.453 172.482 484.019 173.214 487.524 174.149 C 491.511 175.217 495.385 176.654 499.142 178.413 C 502.487 179.978 505.721 181.741 508.726 183.863 C 511.422 185.767 513.989 187.865 516.515 190 C 519.154 192.231 521.562 194.717 523.686 197.455 C 525.301 199.538 526.988 201.586 528.397 203.806 C 530.16 206.588 531.793 209.471 533.255 212.423 C 534.474 214.885 535.537 217.456 536.361 220.076 C 537.407 223.401 538.233 226.803 538.969 230.214 C 539.41 232.252 539.589 234.361 539.717 236.449 C 539.901 239.418 540.027 242.397 539.995 245.372 C 539.971 247.536 539.771 249.718 539.433 251.858 C 538.91 255.189 538.351 258.529 537.528 261.793 C 536.85 264.473 535.839 267.079 534.844 269.667 C 532.963 274.556 530.415 279.112 527.445 283.406 C 525.862 285.694 524.019 287.805 522.246 289.957 C 521.308 291.097 520.333 292.22 519.264 293.235 C 517.658 294.766 516.015 296.272 514.277 297.646 C 512.021 299.43 509.742 301.21 507.318 302.743 C 504.628 304.446 501.82 305.993 498.956 307.382 C 495.22 309.194 491.326 310.658 487.262 311.569 C 484.143 312.268 481.001 312.878 477.853 313.429 C 476.498 313.665 475.099 313.691 473.718 313.737 C 471.274 313.819 468.824 313.954 466.384 313.859 C 463.915 313.763 461.452 313.461 458.996 313.166 C 454.479 312.623 450.101 311.471 445.803 309.995 C 441.786 308.616 437.918 306.888 434.251 304.758 C 431.632 303.237 429.059 301.598 426.644 299.773 C 424.292 297.997 422.142 295.944 419.95 293.96 C 418.768 292.891 417.604 291.783 416.574 290.57 C 414.809 288.484 413.102 286.341 411.466 284.15 C 409.036 280.895 407.028 277.373 405.273 273.715 C 402.976 268.935 401.195 263.963 400.067 258.776 C 399.58 256.527 399.264 254.24 398.895 251.966 C 398.222 247.824 398.186 243.64 398.353 239.471 C 398.515 235.379 399.068 231.32 399.983 227.312 C 401.112 222.371 402.628 217.569 404.842 213.017 C 406.18 210.27 407.681 207.597 409.213 204.952 C 410.944 201.963 413.02 199.206 415.333 196.647 C 417.247 194.528 419.143 192.37 421.259 190.466 C 423.675 188.292 426.25 186.274 428.899 184.389 C 431.111 182.812 433.49 181.451 435.867 180.122 C 440.551 177.498 445.521 175.541 450.731 174.26 C 453.673 173.536 456.655 172.963 459.633 172.402 C 460.845 172.174 462.097 172.157 463.365 171.993 C 467.204 171.943 471.007 171.943 474.878 171.943 M 411.739 211.373 C 410.707 213.573 409.565 215.731 408.673 217.987 C 407.651 220.564 406.776 223.207 405.981 225.862 C 405.091 228.827 404.5 231.868 404.231 234.96 C 404.019 237.388 403.815 239.815 403.675 242.248 C 403.62 243.175 403.734 244.114 403.806 245.045 C 403.984 247.331 404.143 249.619 404.381 251.898 C 404.754 255.481 405.627 258.96 406.683 262.393 C 408.132 267.106 410.132 271.574 412.599 275.839 C 415.436 280.742 418.87 285.181 422.843 289.205 C 423.649 290.021 424.499 290.797 425.346 291.571 C 426.14 292.297 426.907 293.072 427.78 293.693 C 430.391 295.557 433.014 297.411 435.697 299.169 C 439.114 301.41 442.824 303.086 446.652 304.483 C 451.346 306.2 456.158 307.464 461.146 307.961 C 463.326 308.179 465.509 308.402 467.695 308.516 C 469.005 308.583 470.328 308.479 471.639 308.385 C 473.897 308.224 476.155 308.056 478.403 307.808 C 481.712 307.441 484.942 306.664 488.12 305.687 C 495.042 303.559 501.456 300.414 507.321 296.13 C 510.857 293.549 514.22 290.786 517.084 287.461 C 518.9 285.353 520.697 283.219 522.372 280.999 C 525.446 276.927 527.814 272.437 529.754 267.73 C 531.415 263.699 532.724 259.546 533.397 255.222 C 533.822 252.497 534.268 249.767 534.508 247.023 C 534.685 245.003 534.633 242.95 534.522 240.922 C 534.372 238.184 534.124 235.449 533.812 232.724 C 533.435 229.432 532.589 226.23 531.599 223.078 C 530.168 218.519 528.222 214.18 525.845 210.028 C 523.106 205.242 519.731 200.944 515.959 196.949 C 515.106 196.046 514.188 195.199 513.254 194.38 C 511.893 193.189 510.553 191.961 509.092 190.905 C 506.901 189.319 504.669 187.77 502.349 186.386 C 500.067 185.028 497.703 183.787 495.289 182.686 C 491.476 180.95 487.499 179.64 483.392 178.8 C 481.282 178.367 479.144 178.054 477.011 177.74 C 475.906 177.576 474.786 177.51 473.669 177.433 C 472.099 177.324 470.525 177.174 468.954 177.175 C 467.43 177.176 465.902 177.315 464.383 177.448 C 462.466 177.616 460.534 177.729 458.642 178.065 C 456.363 178.47 454.119 179.079 451.864 179.613 C 448.175 180.484 444.675 181.887 441.26 183.5 C 437.965 185.057 434.83 186.891 431.843 189 C 428.065 191.666 424.525 194.585 421.442 198.037 C 419.966 199.691 418.498 201.358 417.128 203.101 C 415.11 205.666 413.342 208.404 411.739 211.373 Z" style="" transform="matrix(0.9999999999999999, 0, 0, 0.9999999999999999, 0, -2.842170943040401e-14)"/>
	<path fill="#000000" opacity="1.000000" stroke="none" d="M 378.253 250.049 C 377.955 251.552 377.694 252.981 377.352 254.389 C 376.054 259.741 373.694 264.531 370.058 268.695 C 366.927 272.284 363.126 274.849 358.821 276.77 C 355.69 278.168 352.392 278.861 349.051 279.404 C 348.053 279.567 347.025 279.601 346.011 279.603 C 336.89 279.617 327.768 279.61 318.647 279.61 C 318.264 279.61 317.88 279.61 317.441 279.61 C 317.441 255.932 317.441 232.356 317.441 208.69 C 317.783 208.675 318.104 208.648 318.424 208.648 C 327.575 208.646 336.726 208.586 345.877 208.68 C 348.998 208.712 352.09 209.26 355.103 210.173 C 359.099 211.384 362.803 213.188 366.065 215.812 C 369 218.171 371.486 220.951 373.428 224.217 C 375.624 227.908 377.002 231.894 377.857 236.085 C 377.99 236.729 378.041 237.39 378.192 238.084 C 378.253 242.07 378.253 246.017 378.253 250.049 M 349.485 217.17 C 348.341 216.997 347.198 216.686 346.052 216.676 C 340.092 216.626 334.133 216.652 328.173 216.655 C 327.853 216.655 327.535 216.683 327.193 216.697 C 327.193 235.085 327.193 253.382 327.193 271.682 C 327.326 271.723 327.409 271.772 327.493 271.771 C 333.532 271.719 339.574 271.682 345.613 271.601 C 348.338 271.564 350.942 270.933 353.51 269.989 C 358.021 268.329 361.542 265.434 364.125 261.442 C 366.858 257.217 368.167 252.441 368.458 247.452 C 368.726 242.88 368.575 238.299 367.231 233.847 C 366.056 229.95 364.219 226.426 361.424 223.462 C 359.373 221.287 356.918 219.65 354.153 218.552 C 352.698 217.972 351.148 217.638 349.485 217.17 Z" style="" transform="matrix(0.9999999999999999, 0, 0, 0.9999999999999999, 0, -2.842170943040401e-14)"/>
	<path fill="#000000" opacity="1.000000" stroke="none" d="M 83.374 280.338 C 81.851 280.036 80.396 279.794 78.977 279.417 C 76.035 278.635 73.366 277.29 70.998 275.337 C 66.31 271.468 63.989 266.32 62.852 260.464 C 62.22 257.2 62.137 253.902 62.392 250.645 C 62.806 245.328 64.516 240.433 68.033 236.282 C 71.477 232.213 75.852 229.9 81.033 229.014 C 85.376 228.272 89.64 228.494 93.782 230.109 C 97.972 231.743 101.178 234.533 103.341 238.507 C 104.92 241.41 105.919 244.501 106.046 247.827 C 106.113 249.624 106.099 251.425 106.053 253.223 C 106.028 254.232 105.219 254.503 104.406 254.67 C 104.145 254.724 103.865 254.682 103.596 254.682 C 93.181 254.682 82.765 254.682 72.351 254.682 C 71.993 254.682 71.635 254.682 71.227 254.682 C 71.043 257.188 71.446 259.567 72.103 261.908 C 72.885 264.689 74.121 267.256 76.217 269.268 C 78.464 271.426 81.162 272.692 84.286 273.079 C 88.31 273.578 92.127 273.03 95.736 271.134 C 96.94 270.5 98.129 269.835 99.338 269.205 C 99.836 268.945 100.342 268.633 100.88 268.538 C 101.931 268.353 102.85 268.54 103.479 269.618 C 103.987 270.49 104.683 271.252 105.321 272.044 C 105.613 272.406 105.631 272.647 105.289 273.028 C 101.962 276.735 97.654 278.563 92.94 279.598 C 91.635 279.884 90.298 280.013 88.932 280.276 C 87.079 280.338 85.269 280.338 83.374 280.338 M 77.057 249.041 C 84.115 249.041 91.171 249.041 98.516 249.041 C 98.048 246.874 97.811 244.836 97.151 242.948 C 96.177 240.166 94.427 237.942 91.678 236.611 C 88.496 235.072 85.234 234.968 81.857 235.732 C 78.489 236.491 75.907 238.324 74.066 241.252 C 72.581 243.612 71.782 246.204 71.424 249.041 C 73.274 249.041 75.075 249.041 77.057 249.041 Z" style="" transform="matrix(0.9999999999999999, 0, 0, 0.9999999999999999, 0, -2.842170943040401e-14)"/>
	<path fill="#000000" opacity="1.000000" stroke="none" d="M 17 208.732 C 20.092 208.646 23.185 208.646 26.378 208.646 C 26.378 229.597 26.378 250.444 26.378 271.394 C 36.578 271.394 46.676 271.394 56.846 271.394 C 56.846 274.147 56.846 276.799 56.846 279.61 C 43.629 279.61 30.398 279.61 17.084 279.61 C 17 256.013 17 232.414 17 208.732 Z" style="" transform="matrix(0.9999999999999999, 0, 0, 0.9999999999999999, 0, -2.842170943040401e-14)"/>
	<path fill="#000000" opacity="1.000000" stroke="none" d="M 243.327 279.581 C 240.535 279.581 237.743 279.581 234.926 279.581 C 234.926 260.959 234.926 242.408 234.926 223.612 C 234.274 224.783 233.717 225.76 233.183 226.748 C 230.905 230.961 228.644 235.18 226.361 239.39 C 223.965 243.809 221.549 248.218 219.148 252.634 C 217.09 256.419 215.05 260.212 212.984 263.991 C 212.296 265.25 211.578 266.494 210.825 267.713 C 210.119 268.854 209.127 269.539 207.717 269.423 C 206.74 269.343 205.733 269.403 204.792 269.179 C 203.553 268.885 203.012 267.74 202.441 266.723 C 201.181 264.485 199.957 262.227 198.713 259.98 C 196.385 255.77 194.064 251.556 191.72 247.353 C 189.914 244.116 188.059 240.906 186.261 237.663 C 184.649 234.761 183.096 231.826 181.499 228.915 C 180.581 227.243 179.631 225.591 178.543 223.937 C 178.543 242.446 178.543 260.956 178.543 279.538 C 175.654 279.538 172.903 279.538 170.069 279.538 C 170.069 255.954 170.069 232.355 170.069 208.646 C 171.532 208.646 172.966 208.646 174.404 208.646 C 175.577 208.646 176.751 208.642 177.926 208.648 C 178.954 208.655 179.777 209.05 180.303 209.977 C 181.558 212.186 182.817 214.395 184.065 216.61 C 186.163 220.331 188.265 224.051 190.347 227.781 C 191.585 229.999 192.778 232.244 194.01 234.465 C 196.073 238.177 198.148 241.88 200.219 245.587 C 201.997 248.77 203.813 251.932 205.529 255.147 C 206.099 256.213 206.418 257.416 206.92 258.736 C 207.336 257.75 207.633 256.91 208.033 256.123 C 209.125 253.967 210.231 251.82 211.384 249.698 C 213.569 245.676 215.8 241.681 217.995 237.665 C 219.186 235.486 220.324 233.277 221.519 231.1 C 223.576 227.35 225.665 223.619 227.724 219.872 C 229.195 217.197 230.639 214.508 232.094 211.826 C 232.424 211.22 232.741 210.609 233.08 210.01 C 233.63 209.042 234.485 208.64 235.571 208.644 C 238.1 208.655 240.629 208.652 243.241 208.749 C 243.325 232.423 243.327 256.002 243.327 279.581 Z" style="" transform="matrix(0.9999999999999999, 0, 0, 0.9999999999999999, 0, -2.842170943040401e-14)"/>
	<path fill="#000000" opacity="1.000000" stroke="none" d="M 272.23 216.653 C 271.485 216.653 270.83 216.653 270.118 216.653 C 270.118 224.437 270.118 232.122 270.118 239.908 C 279.214 239.908 288.289 239.908 297.437 239.908 C 297.437 242.479 297.437 244.948 297.437 247.552 C 288.368 247.552 279.271 247.552 270.117 247.552 C 270.117 255.613 270.117 263.542 270.117 271.571 C 281.323 271.571 292.504 271.571 303.76 271.571 C 303.76 274.262 303.76 276.853 303.76 279.528 C 289.328 279.528 274.876 279.528 260.362 279.528 C 260.362 255.933 260.362 232.359 260.362 208.715 C 274.819 208.715 289.25 208.715 303.759 208.715 C 303.759 211.302 303.759 213.893 303.759 216.653 C 293.296 216.653 282.808 216.653 272.23 216.653 Z" style="" transform="matrix(0.9999999999999999, 0, 0, 0.9999999999999999, 0, -2.842170943040401e-14)"/>
	<path fill="#000000" opacity="1.000000" stroke="none" d="M 126.459 264.144 C 126.459 269.321 126.459 274.406 126.459 279.552 C 123.488 279.552 120.615 279.552 117.676 279.552 C 117.676 255.286 117.676 231.045 117.676 206.725 C 120.559 206.725 123.454 206.725 126.446 206.725 C 126.446 220.986 126.446 235.221 126.446 249.534 C 128.433 249.634 130.224 249.734 131.707 248.072 C 134.551 244.885 137.523 241.815 140.434 238.69 C 142.069 236.936 143.677 235.157 145.324 233.414 C 146.41 232.263 147.504 231.11 148.678 230.054 C 149.087 229.687 149.746 229.436 150.298 229.424 C 153.09 229.361 155.886 229.395 158.919 229.395 C 158.253 230.184 157.744 230.851 157.173 231.46 C 154.642 234.154 152.088 236.826 149.557 239.518 C 147.747 241.44 145.956 243.379 144.16 245.314 C 142.463 247.141 140.775 248.975 139.07 250.794 C 138.751 251.136 138.376 251.425 138.174 251.606 C 140.685 254.81 143.153 257.977 145.639 261.129 C 147.416 263.38 149.227 265.604 151.004 267.854 C 152.889 270.24 154.749 272.645 156.622 275.04 C 157.76 276.495 158.898 277.948 160.157 279.555 C 159.699 279.578 159.392 279.608 159.084 279.608 C 156.766 279.613 154.446 279.547 152.132 279.634 C 150.642 279.69 149.626 278.999 148.768 277.927 C 146.635 275.264 144.517 272.59 142.397 269.916 C 139.844 266.696 137.303 263.468 134.747 260.252 C 133.853 259.127 132.915 258.038 132.024 256.912 C 131.321 256.027 130.387 255.767 129.326 255.773 C 128.426 255.778 127.524 255.774 126.459 255.774 C 126.459 258.567 126.459 261.311 126.459 264.144 Z" style="" transform="matrix(0.9999999999999999, 0, 0, 0.9999999999999999, 0, -2.842170943040401e-14)"/>
	<path fill="#000000" opacity="1.000000" stroke="none" d="M 470.885 238.645 C 469.252 238.878 467.681 239.111 466.073 239.347 C 466.048 239.216 466.001 239.105 466.006 238.996 C 466.132 236.481 464.278 234.667 462.016 234.178 C 459.561 233.648 457.082 233.23 454.623 232.713 C 451.137 231.978 447.688 231.071 444.409 229.669 C 442.096 228.678 439.802 227.603 437.633 226.337 C 435.114 224.867 432.897 222.994 431.642 220.226 C 431.602 220.14 431.56 220.054 431.532 219.965 C 431.519 219.922 431.54 219.871 431.554 219.758 C 456.624 219.758 481.702 219.758 507.014 219.758 C 506.463 220.668 506.058 221.529 505.481 222.255 C 503.658 224.557 501.269 226.153 498.708 227.524 C 493.958 230.071 488.859 231.598 483.624 232.723 C 481.222 233.239 478.794 233.644 476.395 234.179 C 474.42 234.621 472.953 235.693 472.468 237.808 C 472.374 238.219 472.177 238.554 471.646 238.515 C 471.417 238.498 471.18 238.597 470.885 238.645 Z" style="" transform="matrix(0.9999999999999999, 0, 0, 0.9999999999999999, 0, -2.842170943040401e-14)"/>
	<path fill="#000000" opacity="1.000000" stroke="none" d="M 462.51 253.421 C 463.198 253.544 463.826 253.659 464.506 253.785 C 464.506 255.681 464.506 257.597 464.506 259.634 C 463.749 259.533 463.008 259.464 462.277 259.331 C 459.395 258.809 456.571 258.078 453.962 256.7 C 452.505 255.932 451.197 254.979 450.291 253.524 C 449.059 251.545 449.366 248.452 450.918 246.728 C 452.921 244.501 455.491 243.261 458.263 242.458 C 460.645 241.766 463.1 241.293 465.545 240.841 C 468.295 240.331 471.087 240.035 473.832 239.492 C 476.854 238.896 479.705 237.758 482.353 236.159 C 482.84 235.866 483.368 235.55 483.706 235.112 C 484.566 233.995 485.77 233.712 487.036 233.408 C 488.785 232.989 490.499 232.43 492.293 231.914 C 492.234 232.175 492.214 232.436 492.115 232.665 C 490.935 235.459 489.258 237.886 486.892 239.82 C 484.128 242.081 480.896 243.415 477.537 244.388 C 474.744 245.195 471.874 245.746 469.018 246.304 C 466.602 246.777 464.134 246.996 461.731 247.52 C 460.199 247.855 458.63 248.236 457.335 249.268 C 456.013 250.321 456.522 251.227 457.535 251.822 C 459.051 252.714 460.725 253.145 462.51 253.421 Z" style="" transform="matrix(0.9999999999999999, 0, 0, 0.9999999999999999, 0, -2.842170943040401e-14)"/>
	<path fill="#000000" opacity="1.000000" stroke="none" d="M 468.019 283.07 C 460.351 283.07 452.759 283.07 445.164 283.07 C 445.116 283.006 445.069 282.941 445.021 282.876 C 445.595 282.323 446.116 281.695 446.754 281.229 C 448.472 279.976 450.464 279.355 452.508 278.871 C 455.712 278.114 458.921 277.378 462.108 276.549 C 463.424 276.206 464.659 275.597 465.396 274.332 C 465.587 274.009 465.782 273.653 465.831 273.293 C 465.898 272.78 466.201 272.604 466.618 272.523 C 468.5 272.155 470.384 271.796 472.277 271.434 C 472.338 271.946 472.388 272.486 472.469 273.021 C 472.731 274.74 473.917 275.64 475.387 276.251 C 478.146 277.398 481.09 277.825 483.984 278.444 C 486.627 279.006 489.287 279.545 491.528 281.2 C 492.176 281.678 492.735 282.281 493.335 282.828 C 493.294 282.909 493.255 282.989 493.215 283.07 C 484.84 283.07 476.466 283.07 468.019 283.07 Z" style="" transform="matrix(0.9999999999999999, 0, 0, 0.9999999999999999, 0, -2.842170943040401e-14)"/>
	<path fill="#000000" opacity="1.000000" stroke="none" d="M 486.021 206.563 C 489.688 209.706 491.974 213.607 493.005 218.391 C 491.647 218.391 490.358 218.391 489.069 218.391 C 487.54 218.391 487.633 218.352 487.034 216.933 C 485.53 213.368 483.482 210.167 479.963 208.303 C 478.653 207.609 477.107 207.316 475.635 206.981 C 474.157 206.644 472.64 206.681 471.172 207.112 C 469.365 207.642 467.893 208.486 467.077 210.409 C 466.648 211.418 465.657 212.251 464.775 212.993 C 463.361 214.183 461.835 215.28 459.978 215.658 C 459.26 215.804 458.461 215.723 457.729 215.587 C 456.953 215.443 456.812 214.705 457.434 214.205 C 458.007 213.748 458.638 213.364 459.245 212.946 C 459.85 212.53 460.466 212.132 461.049 211.686 C 461.257 211.525 461.378 211.249 461.636 210.893 C 460.03 210.834 458.58 210.7 457.141 210.777 C 456.691 210.8 456.272 211.395 455.742 211.802 C 455.306 211.505 454.729 211.109 454.074 210.662 C 453.965 210.928 453.88 211.136 453.796 211.337 C 452.902 210.595 452.671 208.485 453.444 207.627 C 453.999 207.01 454.818 207.221 455.521 207.117 C 457.072 206.887 458.699 206.936 460.166 206.47 C 461.712 205.978 463.165 205.325 464.847 205.466 C 465.253 205.501 465.714 205.228 466.109 205.017 C 468.159 203.918 470.329 203.166 472.618 202.791 C 474.862 202.426 477.081 202.675 479.277 203.199 C 481.765 203.793 484.004 204.896 486.021 206.563 Z" style="" transform="matrix(0.9999999999999999, 0, 0, 0.9999999999999999, 0, -2.842170943040401e-14)"/>
	<path fill="#000000" opacity="1.000000" stroke="none" d="M 483.026 262.21 C 482.843 264.272 481.713 265.643 480.126 266.727 C 478.035 268.155 475.689 269.003 473.267 269.589 C 469.929 270.394 466.549 271.026 463.2 271.787 C 460.918 272.306 458.75 273.139 456.829 274.527 C 456.737 274.593 456.606 274.601 456.321 274.691 C 456.673 274.082 456.9 273.539 457.256 273.099 C 458.758 271.247 460.545 269.732 462.657 268.601 C 466.159 266.725 469.993 265.739 473.696 264.397 C 474.696 264.035 475.675 263.595 476.617 263.102 C 477.252 262.771 477.313 262.32 476.731 261.957 C 475.945 261.466 475.037 261.171 474.179 260.799 C 474.076 260.755 473.957 260.754 473.832 260.729 C 473.832 258.82 473.832 256.949 473.832 254.918 C 474.855 255.154 475.829 255.313 476.761 255.603 C 478.876 256.26 480.835 257.19 482.142 259.105 C 482.769 260.02 483.034 261.043 483.026 262.21 Z" style="" transform="matrix(0.9999999999999999, 0, 0, 0.9999999999999999, 0, -2.842170943040401e-14)"/>
	<path fill="#000000" opacity="1.000000" stroke="none" d="M 470.92 263.835 C 469.277 264.395 467.692 264.946 466.039 265.52 C 466.039 259.718 466.039 254.018 466.039 248.276 C 468.118 247.947 470.191 247.619 472.348 247.276 C 472.348 247.637 472.348 247.921 472.348 248.205 C 472.348 252.904 472.322 257.606 472.371 262.305 C 472.379 263.156 472.173 263.617 471.311 263.701 C 471.196 263.713 471.089 263.783 470.92 263.835 Z" style="" transform="matrix(0.9999999999999999, 0, 0, 0.9999999999999999, 0, -2.842170943040401e-14)"/>
	<path fill="#000000" opacity="1.000000" stroke="none" d="M 457.225 213.209 C 456.718 213.666 456.22 214.063 455.797 214.528 C 455.258 215.12 454.619 215.27 453.679 215.154 C 454.167 214.938 454.499 214.791 454.829 214.643 C 454.822 214.567 454.817 214.491 454.81 214.414 C 454.171 214.363 453.531 214.31 452.891 214.259 C 452.891 214.197 452.891 214.136 452.891 214.075 C 454.483 214.002 455.873 213.451 457.132 212.475 C 457.962 211.831 458.949 211.496 460.114 211.659 C 459.699 211.925 459.3 212.222 458.865 212.451 C 458.349 212.723 457.803 212.938 457.225 213.209 Z" style="" transform="matrix(0.9999999999999999, 0, 0, 0.9999999999999999, 0, -2.842170943040401e-14)"/>
</svg>